HIERARCHY
ROOT SpineBase
{
  OFFSET 0.000000 0.000000 0.000000
  CHANNELS 6 Xposition Yposition Zposition Zrotation Xrotation Yrotation
  JOINT SpineMid
  {
    OFFSET -0.000000 27.381527 0.000000
    CHANNELS 3 Zrotation Xrotation Yrotation
    JOINT SpineShoulder
    {
      OFFSET 0.023510 20.557106 -0.616150
      CHANNELS 3 Zrotation Xrotation Yrotation
      JOINT Neck
      {
        OFFSET 0.038224 6.897464 -0.504974
        CHANNELS 3 Zrotation Xrotation Yrotation
        JOINT Head
        {
          OFFSET 3.224227 13.914025 -0.159084
          CHANNELS 3 Zrotation Xrotation Yrotation
          End Site
          {
            OFFSET 0 0 0
          }
        }
      }
      JOINT ShoulderLeft
      {
        OFFSET -11.997962 1.180682 -9.510834
        CHANNELS 3 Zrotation Xrotation Yrotation
        JOINT ElbowLeft
        {
          OFFSET -2.368904 -20.083234 -9.728100
          CHANNELS 3 Zrotation Xrotation Yrotation
          JOINT WristLeft
          {
            OFFSET 10.137473 -14.563534 -12.440189
            CHANNELS 3 Zrotation Xrotation Yrotation
            JOINT HandLeft
            {
              OFFSET 2.007437 -2.256039 -3.598676
              CHANNELS 3 Zrotation Xrotation Yrotation
              JOINT HandTipLeft
              {
                OFFSET 1.550816 -0.837210 -3.714598
                CHANNELS 3 Zrotation Xrotation Yrotation
                End Site
                {
                  OFFSET 0 0 0
                }
              }
              JOINT ThumbLeft
              {
                OFFSET -2.869728 -2.190337 -2.588197
                CHANNELS 3 Zrotation Xrotation Yrotation
                End Site
                {
                  OFFSET 0 0 0
                }
              }
            }
          }
        }
      }
      JOINT ShoulderRight
      {
        OFFSET 14.944945 -3.881277 6.630201
        CHANNELS 3 Zrotation Xrotation Yrotation
        JOINT ElbowRight
        {
          OFFSET 7.450644 -24.268241 -3.956641
          CHANNELS 3 Zrotation Xrotation Yrotation
          JOINT WristRight
          {
            OFFSET 11.051304 -11.369192 -13.605880
            CHANNELS 3 Zrotation Xrotation Yrotation
            JOINT HandRight
            {
              OFFSET 0.147748 -4.445898 -4.455921
              CHANNELS 3 Zrotation Xrotation Yrotation
              JOINT HandTipRight
              {
                OFFSET 3.189594 -4.364043 -3.285812
                CHANNELS 3 Zrotation Xrotation Yrotation
                End Site
                {
                  OFFSET 0 0 0
                }
              }
              JOINT ThumbRight
              {
                OFFSET -2.394330 0.938241 -3.625590
                CHANNELS 3 Zrotation Xrotation Yrotation
                End Site
                {
                  OFFSET 0 0 0
                }
              }
            }
          }
        }
      }
    }
  }
  JOINT HipLeft
  {
    OFFSET -5.968954 1.755249 -6.910028
    CHANNELS 3 Zrotation Xrotation Yrotation
    JOINT KneeLeft
    {
      OFFSET 8.827030 5.581682 -31.015157
      CHANNELS 3 Zrotation Xrotation Yrotation
      JOINT AnkleLeft
      {
        OFFSET 4.524703 -33.994308 0.621206
        CHANNELS 3 Zrotation Xrotation Yrotation
        JOINT FootLeft
        {
          OFFSET -1.632360 -6.384703 -6.763151
          CHANNELS 3 Zrotation Xrotation Yrotation
          End Site
          {
            OFFSET 0 0 0
          }
        }
      }
    }
  }
  JOINT HipRight
  {
    OFFSET 7.075123 1.327172 0.872431
    CHANNELS 3 Zrotation Xrotation Yrotation
    JOINT KneeRight
    {
      OFFSET 23.944989 0.709698 -14.827473
      CHANNELS 3 Zrotation Xrotation Yrotation
      JOINT AnkleRight
      {
        OFFSET -11.154775 -32.132564 -11.353109
        CHANNELS 3 Zrotation Xrotation Yrotation
        JOINT FootRight
        {
          OFFSET 4.295464 -4.486783 -8.203910
          CHANNELS 3 Zrotation Xrotation Yrotation
          End Site
          {
            OFFSET 0 0 0
          }
        }
      }
    }
  }
}
MOTION
Frames: 15
Frame Time: 0.033333
-64.495004 34.240948 352.762054 0.823858 -2.280751 -30.026788 1.923009 -0.554840 30.105743 0.154598 0.101157 0.115309 -18.476641 -2.135187 1.208181 0.000000 0.000000 0.000000 -8.295307 4.444524 3.047710 10.802827 -1.658011 -6.903050 -1.685518 0.300728 -0.692697 -5.765267 -16.113109 -29.643681 0.000000 0.000000 0.000000 0.000000 0.000000 0.000000 90.626465 -29.771540 -1.680343 -59.259376 15.200344 -12.207755 21.563567 -7.555512 -16.699799 -31.438592 8.345098 34.545443 0.000000 0.000000 0.000000 0.000000 0.000000 0.000000 -2.521373 3.593980 29.147587 0.018717 -1.256466 1.075077 8.449831 14.371465 -12.902773 0.000000 0.000000 0.000000 -2.570961 0.139373 31.109402 4.108761 -0.310168 -1.658919 -36.247940 29.431492 73.123464 0.000000 0.000000 0.000000
-64.425788 34.305886 352.836345 1.232505 -2.579346 -30.367843 2.218867 -0.149970 30.466934 0.020972 0.203770 0.143453 -19.385968 -3.084220 1.264985 0.000000 0.000000 0.000000 -9.026079 3.698853 3.083156 11.796110 -0.541383 -7.557070 -1.689646 0.921392 -0.766358 -6.890498 -17.848080 -29.676716 0.000000 0.000000 0.000000 0.000000 0.000000 0.000000 87.147634 -28.263673 -2.925282 -57.330498 13.736415 -12.818200 21.957421 -4.752208 -18.923662 -29.844519 6.220295 34.157781 0.000000 0.000000 0.000000 0.000000 0.000000 0.000000 -3.017104 3.571488 29.604306 0.075121 -1.259352 0.971378 0.811735 10.606494 -4.098421 0.000000 0.000000 0.000000 -3.233073 -0.168756 31.865716 4.497430 -0.151144 -2.090287 -36.367838 29.418334 73.202998 0.000000 0.000000 0.000000
-64.271502 34.478757 352.946169 1.892154 -2.881157 -30.496985 2.312615 0.284487 30.625483 -0.108754 0.234226 0.176858 -20.796732 -3.988599 1.283648 0.000000 0.000000 0.000000 -9.731038 3.346284 3.003505 9.010534 -1.064944 -6.125973 -0.967040 1.600686 0.315859 -7.726768 -19.430164 -32.582860 0.000000 0.000000 0.000000 0.000000 0.000000 0.000000 84.565328 -26.411423 -4.105799 -56.002798 11.802807 -13.611587 22.396120 -1.780703 -21.242651 -27.991750 4.521800 33.718886 0.000000 0.000000 0.000000 0.000000 0.000000 0.000000 -3.684139 3.371844 29.966362 -0.074211 -0.946742 0.778630 -2.064075 13.303901 -1.563316 0.000000 0.000000 0.000000 -4.246689 -0.888802 32.572758 5.006234 0.174001 -2.640779 -36.563261 30.195260 73.597995 0.000000 0.000000 0.000000
-64.139460 34.670480 353.045853 2.483065 -3.097149 -30.474779 2.126474 0.632700 30.626575 -0.407717 0.193746 0.190846 -20.257511 -4.665317 1.293175 0.000000 0.000000 0.000000 -9.793089 2.897206 2.867410 9.010381 -0.527499 -6.120674 -1.124252 1.479001 0.352061 -9.036481 -21.033512 -33.069712 0.000000 0.000000 0.000000 0.000000 0.000000 0.000000 82.844206 -24.416472 -5.145061 -54.361631 9.698572 -15.019365 19.718880 0.945266 -19.857385 -24.392202 2.733747 31.957948 0.000000 0.000000 0.000000 0.000000 0.000000 0.000000 -4.230515 3.117854 30.182511 -0.249694 -0.687231 0.565709 -2.045431 10.025196 -0.754627 0.000000 0.000000 0.000000 -5.151231 -1.623193 32.980361 5.464992 0.525844 -3.048695 -36.778837 31.049874 74.078874 0.000000 0.000000 0.000000
-64.031648 34.893216 353.144422 2.793561 -3.359208 -30.247289 1.342175 0.343255 30.423237 -1.039499 -0.004202 0.152367 -15.655779 -4.239134 1.478115 0.000000 0.000000 0.000000 -8.248964 2.966859 2.752230 8.702671 -0.098126 -5.931693 -1.163721 1.144026 0.126388 -8.284250 -19.993154 -31.469581 0.000000 0.000000 0.000000 0.000000 0.000000 0.000000 82.402687 -22.502461 -6.474929 -53.569647 7.906106 -15.368416 18.896277 1.945985 -19.342757 -20.611492 1.377754 29.736364 0.000000 0.000000 0.000000 0.000000 0.000000 0.000000 -4.530698 2.969732 30.148693 -0.336804 -0.434243 0.387865 1.447637 3.780520 -2.873569 0.000000 0.000000 0.000000 -5.851945 -2.169210 33.116774 6.117823 0.778555 -3.425983 -36.285000 29.462068 73.299577 0.000000 0.000000 0.000000
-63.918555 35.101918 353.278023 2.979932 -3.657421 -30.100246 0.678880 0.124072 30.293101 -0.679961 -0.021579 0.147514 -12.018746 -3.649186 1.512994 0.000000 0.000000 0.000000 -7.415011 2.804932 2.427597 8.179346 0.688961 -5.527103 -1.267165 0.173623 -0.515425 -9.280694 -20.947898 -30.334393 0.000000 0.000000 0.000000 0.000000 0.000000 0.000000 80.765659 -21.175529 -7.326844 -52.134774 7.132975 -15.826694 17.552114 2.739319 -18.317652 -18.492321 0.096877 28.492212 0.000000 0.000000 0.000000 0.000000 0.000000 0.000000 -4.753886 2.964606 30.233974 -0.413573 -0.254828 0.172021 9.371107 7.627308 -12.032112 0.000000 0.000000 0.000000 -6.428503 -2.567488 33.355924 6.414390 1.072976 -3.728477 -35.645495 29.073439 72.654927 0.000000 0.000000 0.000000
-63.758700 35.304094 353.397897 3.287296 -3.907531 -30.082481 0.295525 0.079982 30.298403 -0.584696 -0.026449 0.150261 -9.855416 -3.071570 1.470145 0.000000 0.000000 0.000000 -6.967401 2.445459 2.209757 7.905104 1.615134 -5.261653 -1.543225 -1.097525 -1.175522 -10.430693 -22.104972 -29.710578 0.000000 0.000000 0.000000 0.000000 0.000000 0.000000 79.132359 -20.393039 -7.805676 -50.757934 7.341713 -15.942172 16.880692 1.062795 -16.793331 -17.758659 0.034954 27.411432 0.000000 0.000000 0.000000 0.000000 0.000000 0.000000 -5.058838 2.897547 30.553670 -0.524941 -0.091846 -0.145317 22.920598 15.016991 -28.185083 0.000000 0.000000 0.000000 -7.060669 -3.044777 33.686482 6.379703 1.422536 -3.896154 -34.550378 29.084390 71.699111 0.000000 0.000000 0.000000
-63.667107 35.451464 353.449627 3.485960 -4.045013 -30.066360 -0.063277 -0.026807 30.298484 -0.568393 -0.009367 0.143625 -7.801635 -2.748402 1.435521 0.000000 0.000000 0.000000 -6.141062 2.209990 1.878344 7.277721 2.200886 -4.851452 -1.380803 -1.394507 -1.657943 -10.146379 -21.694777 -27.205119 0.000000 0.000000 0.000000 0.000000 0.000000 0.000000 78.194772 -19.499470 -8.232742 -50.466670 7.075489 -15.430225 18.228357 -0.060168 -17.625738 -18.007075 0.987523 27.249884 0.000000 0.000000 0.000000 0.000000 0.000000 0.000000 -5.249218 2.833175 30.717475 -0.565122 -0.019582 -0.316065 28.331961 14.763256 -34.172733 0.000000 0.000000 0.000000 -7.484893 -3.425138 33.843624 6.296378 1.684578 -3.912139 -33.586703 29.096461 70.834251 0.000000 0.000000 0.000000
-63.641115 35.484169 353.409346 3.649329 -3.999806 -29.659127 -0.124305 -0.106763 29.902048 -0.474577 -0.046155 0.151350 -6.918823 -2.474571 1.387611 0.000000 0.000000 0.000000 -5.729073 1.990425 1.589251 6.651190 2.639168 -4.485205 -1.536322 -1.695297 -1.606433 -9.501040 -20.804792 -26.538257 0.000000 0.000000 0.000000 0.000000 0.000000 0.000000 77.325374 -18.829673 -8.553187 -49.526898 7.436700 -15.607738 17.852891 -3.485326 -15.532597 -18.726167 3.930784 26.419736 0.000000 0.000000 0.000000 0.000000 0.000000 0.000000 -5.351699 2.793410 30.357184 -0.553671 -0.191336 -0.378646 28.169122 18.755416 -34.653074 0.000000 0.000000 0.000000 -7.697517 -3.591875 33.205746 5.981910 1.736210 -3.511775 -32.828691 30.367646 70.198634 0.000000 0.000000 0.000000
-63.609608 35.458276 353.449069 3.885311 -4.047267 -29.457175 -0.083295 -0.084652 29.717062 -0.327035 -0.051174 0.169826 -7.092298 -2.471087 1.387436 0.000000 0.000000 0.000000 -5.678127 1.836260 1.340417 6.104674 3.045896 -4.128594 -1.590544 -1.633970 -1.395276 -9.803408 -21.326316 -28.421438 0.000000 0.000000 0.000000 0.000000 0.000000 0.000000 76.389399 -18.224401 -8.868372 -49.106431 7.518233 -15.524824 19.455389 -4.351906 -16.938213 -20.561613 3.989938 27.807421 0.000000 0.000000 0.000000 0.000000 0.000000 0.000000 -5.586912 2.830546 30.209271 -0.433715 -1.166766 -0.535669 20.444688 24.898613 -27.193390 0.000000 0.000000 0.000000 -7.925636 -3.620995 33.038411 5.672878 1.759551 -3.428197 -31.908761 28.345098 69.178442 0.000000 0.000000 0.000000
-63.630392 35.401738 353.566010 4.119813 -4.190911 -29.507434 0.010407 0.006735 29.786164 -0.145905 -0.032028 0.192260 -8.064773 -2.622892 1.425825 0.000000 0.000000 0.000000 -5.916913 1.790682 1.179077 5.795371 3.382684 -3.883481 -1.814615 -1.976317 -1.298474 -9.975019 -21.533626 -28.522032 0.000000 0.000000 0.000000 0.000000 0.000000 0.000000 75.269404 -17.563803 -9.235014 -48.560583 7.236609 -15.687506 21.807919 -4.553930 -19.380671 -23.001078 3.199021 29.920963 0.000000 0.000000 0.000000 0.000000 0.000000 0.000000 -5.895118 2.933125 30.245455 -0.456761 -1.268246 -0.503255 11.095459 26.777340 -17.314070 0.000000 0.000000 0.000000 -8.110093 -3.485518 33.315649 5.590085 1.722625 -3.664703 -31.943275 27.236152 69.170364 0.000000 0.000000 0.000000
-63.602379 35.349586 353.821230 4.444792 -4.552392 -29.818085 0.006347 0.171433 30.126289 0.001289 -0.009369 0.215053 -8.854063 -2.907617 1.521329 0.000000 0.000000 0.000000 -6.255404 2.045136 1.053253 5.697827 3.455220 -3.791868 -1.837097 -2.147812 -1.467083 -10.141085 -21.716918 -27.906758 0.000000 0.000000 0.000000 0.000000 0.000000 0.000000 74.148416 -17.078451 -9.616420 -48.222624 6.914279 -15.723553 23.440320 -4.685238 -21.037850 -23.503708 1.746006 30.656051 0.000000 0.000000 0.000000 0.000000 0.000000 0.000000 -6.382746 3.141876 30.685686 -0.497946 -1.350935 -0.593315 6.573343 22.957107 -11.833688 0.000000 0.000000 0.000000 -8.432590 -3.234731 34.210829 5.607397 1.684907 -4.289600 -32.153096 26.211539 69.260271 0.000000 0.000000 0.000000
-63.551023 35.259783 354.026532 4.800900 -4.825442 -30.066618 0.000186 0.290492 30.405538 0.119575 0.017577 0.236090 -9.360449 -3.469705 1.656692 0.000000 0.000000 0.000000 -7.049489 2.211792 1.189356 5.935228 3.333208 -3.947738 -2.004609 -2.147711 -1.195101 -9.503806 -20.899724 -28.735986 0.000000 0.000000 0.000000 0.000000 0.000000 0.000000 73.316801 -16.756534 -9.883341 -49.057986 5.998718 -15.063482 25.057058 -2.914960 -23.655442 -22.995634 -0.346565 31.136461 0.000000 0.000000 0.000000 0.000000 0.000000 0.000000 -6.869178 3.337162 31.076314 -0.795599 -0.462495 -0.570442 7.924982 24.279252 -13.417086 0.000000 0.000000 0.000000 -8.726168 -3.012797 34.945691 5.634554 1.534197 -4.818766 -32.678802 26.095113 69.773991 0.000000 0.000000 0.000000
-63.508262 35.145198 354.172801 5.078236 -4.996007 -30.310020 0.015665 0.337662 30.673847 0.186271 0.030609 0.251499 -9.117467 -4.108137 1.813544 0.000000 0.000000 0.000000 -6.975088 2.037098 0.970702 5.925334 4.229599 -3.781871 -2.228533 -2.715263 -1.519662 -9.165433 -20.420256 -28.181524 0.000000 0.000000 0.000000 0.000000 0.000000 0.000000 72.298246 -16.565528 -10.061410 -48.600680 6.157111 -14.987659 22.394724 -4.253740 -19.966811 -20.631762 2.401187 28.237087 0.000000 0.000000 0.000000 0.000000 0.000000 0.000000 -7.252146 3.522179 31.429651 -0.941805 -0.691156 -0.664402 5.400333 22.489915 -10.370601 0.000000 0.000000 0.000000 -8.887340 -2.773725 35.491098 5.635907 1.334633 -5.178931 -33.185312 25.801102 70.207160 0.000000 0.000000 0.000000
-63.449186 35.033813 354.291938 5.306895 -5.128254 -30.501171 -0.009531 0.340742 30.886989 0.196683 0.039355 0.260592 -7.961007 -4.663172 1.969776 0.000000 0.000000 0.000000 -6.231916 1.795386 0.484217 5.557293 5.507499 -3.324021 -2.155334 -2.731593 -1.887133 -9.131229 -20.514659 -26.782961 0.000000 0.000000 0.000000 0.000000 0.000000 0.000000 71.738580 -16.102249 -10.335842 -48.767037 5.875743 -14.632382 22.467321 -5.506052 -19.334971 -18.393718 0.710325 26.448737 0.000000 0.000000 0.000000 0.000000 0.000000 0.000000 -7.574441 3.722216 31.746630 -1.120356 -0.790676 -0.760758 6.516041 22.151625 -11.401920 0.000000 0.000000 0.000000 -9.029969 -2.611577 35.964623 5.807874 1.145291 -5.560497 -33.814590 25.358535 70.700014 0.000000 0.000000 0.000000
